<svg width="138" height="30" viewBox="0 0 138 30" fill="none" xmlns="http://www.w3.org/2000/svg">
<path d="M5.95194 18.6639C5.91033 18.6119 5.87392 18.7627 5.84791 19.1217C5.8167 19.4858 5.80629 19.954 5.80629 20.5366C5.80629 21.1087 5.8115 21.6913 5.8271 22.2843C5.83751 22.8773 5.86872 23.3715 5.91033 23.7617C5.96235 24.1622 6.03517 24.3651 6.1184 24.3651C6.16002 24.2818 6.18082 23.9749 6.18082 23.4495C6.19123 22.919 6.18602 22.3156 6.16002 21.6393C6.14441 20.9631 6.1184 20.3389 6.07679 19.7667C6.04558 19.1997 6.00396 18.8304 5.95194 18.6639ZM7.5957 19.7043C7.56449 20.2192 7.53849 20.7342 7.51248 21.244C7.48127 22.1179 7.43965 22.997 7.38763 23.8865C7.33041 24.9268 7.25239 25.9672 7.15876 27.0076C7.11714 27.2833 7.05472 27.5589 6.97149 27.8398C6.84665 28.2976 6.56055 28.5265 6.1184 28.5265C5.67105 28.5369 5.39015 28.3236 5.26531 27.8815C5.15087 27.4237 5.07805 26.9555 5.03643 26.4874C4.77114 23.6576 4.62549 20.8279 4.59948 17.9981C4.56827 17.0566 4.56827 16.1202 4.59948 15.1891C4.59948 14.747 4.82836 14.5389 5.28612 14.5649C5.62943 14.5805 5.8115 14.7626 5.8271 15.1059C5.83751 15.496 5.84791 15.8914 5.84791 16.2919C5.84791 16.5728 5.85311 16.8641 5.86872 17.1658C5.86872 17.2646 5.88952 17.3687 5.93114 17.4779C5.94154 17.5195 5.95194 17.5507 5.95194 17.5611C5.95194 17.5767 5.95715 17.5819 5.97275 17.5819C5.98315 17.5819 5.99356 17.5819 5.99356 17.5819C6.00396 17.5819 6.01957 17.5819 6.03517 17.5819C6.04558 17.5819 6.06118 17.5819 6.07679 17.5819C6.1028 17.5715 6.1184 17.5559 6.1184 17.5403C6.1184 17.5143 6.1236 17.4883 6.13921 17.4571C6.18082 17.3479 6.20683 17.2438 6.22244 17.145C6.24845 16.4272 6.26405 15.7041 6.26405 14.9811C6.26405 14.4557 6.26925 13.9199 6.28486 13.3789C6.29526 11.8392 6.29526 10.2891 6.28486 8.71812C6.26925 7.73499 6.23284 6.74145 6.18082 5.74271C6.14961 5.30056 6.12881 4.85841 6.1184 4.41105C6.1184 4.32782 6.1184 4.2446 6.1184 4.16137C6.1028 3.99491 6.09759 3.83886 6.09759 3.6828C6.108 3.11581 6.37849 2.88173 6.90907 2.97536C7.18476 3.01698 7.35122 3.18343 7.40844 3.47473C7.41885 3.61518 7.43965 3.74523 7.47086 3.87007C7.51248 4.23419 7.54369 4.59832 7.5749 4.97284C7.62692 6.51257 7.65813 8.0627 7.65813 9.61283C7.65813 11.1109 7.64772 12.6195 7.63732 14.128C7.63732 14.8094 7.62692 15.4908 7.61651 16.1671C7.61651 16.2243 7.61651 16.2711 7.61651 16.3127C7.61651 16.5624 7.61651 16.8069 7.61651 17.041C7.62692 17.2386 7.66853 17.3687 7.74135 17.4363C7.82458 17.5091 7.95983 17.5299 8.1575 17.4987C10.8052 17.2906 13.3229 16.6196 15.7105 15.4804C17.0525 14.8302 18.2593 13.9927 19.3309 12.9628C20.132 12.1877 20.7302 11.397 21.1203 10.5908C21.5209 9.78969 21.7497 9.01982 21.8069 8.28117C21.8746 7.54772 21.8382 6.86629 21.7029 6.24208C21.4376 5.14971 20.855 4.20298 19.9551 3.41231C19.0656 2.62164 17.9472 2.01304 16.6052 1.58129C15.2579 1.13914 13.7962 0.91026 12.2149 0.894654C10.6439 0.868645 9.0574 1.07672 7.45006 1.51887C6.24324 1.85178 5.07805 2.31994 3.95446 2.91294C3.33025 3.24586 2.74765 3.662 2.20667 4.16137C1.95698 4.38504 1.74891 4.62953 1.58245 4.88962C1.40559 5.1393 1.32236 5.44621 1.33277 5.80513C1.33277 5.92997 1.29115 6.0288 1.20793 6.09643C1.1247 6.15365 1.02066 6.19006 0.89582 6.20046C0.760574 6.21607 0.614923 6.21087 0.458871 6.17966C0.198782 6.12764 0.042729 5.95078 0.00111478 5.65948C-0.00928943 5.38378 0.0531332 5.10809 0.188379 4.82719C0.39645 4.40065 0.677346 4.02612 1.02066 3.70361C1.4264 3.31868 1.86335 2.97536 2.33151 2.68406C2.78927 2.38236 3.26783 2.11187 3.7672 1.87259C5.8323 0.905058 8.01185 0.306854 10.3006 0.0831772C11.2578 -0.010454 12.2981 -0.0260597 13.4217 0.041563C14.5557 0.114389 15.6793 0.286047 16.7924 0.56174C17.916 0.842636 18.9564 1.24837 19.9135 1.78936C20.8706 2.31994 21.6665 3.00657 22.3063 3.84926C22.9409 4.68155 23.3311 5.69069 23.4715 6.86629C23.5547 7.61535 23.5027 8.34359 23.3259 9.05103C23.1594 9.75848 22.8941 10.4555 22.5352 11.1317C21.8538 12.3282 20.9643 13.3529 19.8719 14.2112C18.8419 15.0175 17.7496 15.6989 16.5844 16.2503C15.4296 16.8069 14.2228 17.2594 12.9639 17.6028C11.7831 17.9253 10.5919 18.1437 9.38511 18.2686C9.30189 18.2686 9.22386 18.279 9.15624 18.2894C9.14063 18.305 9.11982 18.3102 9.09382 18.3102C9.0522 18.3102 9.01059 18.3258 8.96897 18.3518C8.93776 18.3674 8.91696 18.3934 8.90655 18.435C8.89095 18.5495 8.94817 18.6223 9.07301 18.6639C9.18225 18.7211 9.28628 18.7627 9.38511 18.7888C9.47875 18.8304 9.57758 18.872 9.67641 18.9136C11.6011 19.6366 13.4841 20.4689 15.3151 21.4104C17.1566 22.352 18.9616 23.3559 20.725 24.4275C20.9435 24.5523 21.1515 24.7032 21.3492 24.8852C21.3752 24.9112 21.396 24.9529 21.4116 25.0101C21.422 25.0621 21.4324 25.1141 21.4324 25.1557C21.4168 25.2494 21.3804 25.3222 21.3284 25.3638C21.2868 25.4054 21.2296 25.4366 21.1619 25.4678C20.855 25.5355 20.5793 25.4886 20.3296 25.3222C19.6222 24.9321 18.8992 24.5523 18.1657 24.1778C17.375 23.746 16.574 23.3247 15.7729 22.9086C14.5921 22.2687 13.3905 21.6809 12.1733 21.14C10.9665 20.599 9.74404 20.0892 8.51122 19.6002C8.4696 19.5898 8.43319 19.569 8.40718 19.5378C8.29274 19.4858 8.1783 19.4442 8.05346 19.413C7.92862 19.3714 7.82458 19.3714 7.74135 19.413C7.65813 19.4442 7.60611 19.5378 7.5957 19.7043Z" fill="#1867C3"/>
<path d="M27.2336 17.8319C27.3168 17.8735 27.348 17.9463 27.3376 18.0399C27.3376 18.1232 27.3064 18.2012 27.2544 18.2688C26.8799 18.841 26.4689 19.3456 26.0268 19.7877C25.5794 20.2195 25.0957 20.5472 24.5703 20.7657C24.0397 20.9893 23.4363 21.0517 22.7601 20.9529C22.3023 20.8853 21.9538 20.7344 21.7197 20.4952C21.496 20.2455 21.3296 19.9074 21.2203 19.4756C21.0435 18.7994 21.0019 18.0971 21.0955 17.3741C21.1787 16.958 21.4336 16.7447 21.8654 16.7291C22.2503 16.7291 22.4688 16.9059 22.5104 17.2493C22.5208 17.5406 22.5208 17.8266 22.5104 18.1023C22.5104 18.144 22.5104 18.1804 22.5104 18.2064C22.4792 18.9866 22.5988 19.5172 22.8641 19.8085C23.1398 20.0894 23.4987 20.157 23.9461 20.0166C24.3882 19.8814 24.8616 19.5744 25.3609 19.1011C25.413 19.0335 25.4858 18.9502 25.569 18.8514C25.6626 18.7422 25.7667 18.6329 25.8811 18.5185C26.0476 18.352 26.1776 18.2168 26.2765 18.1023C26.5782 17.8006 26.9007 17.707 27.2336 17.8319ZM21.7613 15.4806C21.4128 15.4702 21.2203 15.2882 21.1787 14.9397C21.1371 14.664 21.1787 14.3987 21.3036 14.149C21.4128 13.9409 21.5949 13.7953 21.8445 13.712C22.0942 13.6288 22.3335 13.6496 22.5728 13.7745C22.656 13.8317 22.708 13.8993 22.7393 13.9825C22.7809 14.0554 22.7913 14.1178 22.7809 14.1698C22.7653 15.0593 22.4271 15.4963 21.7613 15.4806Z" fill="#1867C3"/>
<path d="M32.5389 18.1855C32.5649 18.1751 32.5857 18.1595 32.6013 18.1439C32.7262 18.0607 32.8718 17.9774 33.0383 17.8942C33.2151 17.811 33.3712 17.7798 33.496 17.7902C33.6313 17.7902 33.7145 17.8838 33.7457 18.0607C33.7301 18.3104 33.4544 18.5808 32.9134 18.8721C32.3725 19.1634 31.6962 19.4443 30.8952 19.7044C30.1045 19.9697 29.3398 20.1778 28.6064 20.3286C27.8677 20.4847 27.3163 20.5523 26.9418 20.5367C26.5257 20.4951 26.224 20.3443 26.0263 20.079C25.8182 19.8189 25.7454 19.4704 25.7974 19.0386C25.8702 18.5704 26.0783 18.0919 26.4216 17.6029C26.7805 17.1192 27.2435 16.7394 27.8157 16.4585C28.3983 16.1828 29.0433 16.1048 29.7508 16.2296C29.86 16.2453 29.9484 16.2869 30.0213 16.3545C30.0629 16.3857 30.0941 16.4273 30.1253 16.4793C30.1513 16.5209 30.1669 16.573 30.1669 16.625C30.1513 16.781 30.0525 16.8747 29.8756 16.9163C29.7091 16.9579 29.5427 16.9787 29.3762 16.9787C29.3346 16.9787 29.2982 16.9891 29.2722 16.9995C28.8248 17.0567 28.3879 17.3116 27.9614 17.7694C27.5296 18.2167 27.2851 18.7005 27.2331 19.2259C27.2331 19.4652 27.4516 19.5744 27.8989 19.5588C28.3411 19.5484 28.8769 19.4547 29.5011 19.2883C30.1253 19.1218 30.7131 18.945 31.2697 18.7473C31.8367 18.5392 32.258 18.352 32.5389 18.1855Z" fill="#1867C3"/>
<path d="M43.2343 17.873C43.3175 17.8886 43.3695 17.9459 43.4008 18.0395C43.4268 18.1383 43.4008 18.2476 43.3175 18.3724C43.0678 18.7053 42.6985 19.0538 42.2147 19.4128C41.7258 19.7613 41.1952 20.0526 40.6126 20.2867C40.0404 20.5103 39.489 20.5988 38.948 20.5572C38.4174 20.5155 37.9909 20.2659 37.658 19.8081C37.5748 19.6989 37.4967 19.5896 37.4291 19.4752C37.2887 19.2151 37.1066 18.9706 36.8881 18.7469C36.6228 18.4973 36.3732 18.4973 36.1391 18.7469C35.7073 19.2203 35.3588 19.7405 35.0987 20.3075C34.9843 20.5988 34.8698 20.8849 34.745 21.1606C34.6618 21.3842 34.5681 21.5923 34.4745 21.7848C34.2508 22.3362 33.8607 22.5338 33.3093 22.3674C33.0284 22.2529 32.8828 22.0657 32.8516 21.8056C32.8411 21.7119 32.8411 21.6079 32.8516 21.4935C32.8516 21.4519 32.8516 21.4102 32.8516 21.3686C32.8828 20.3023 32.914 19.2411 32.9556 18.1851C33.0232 15.6623 33.1116 13.1446 33.2261 10.6322C33.2365 10.0912 33.2521 9.5502 33.2677 9.00922C33.3093 7.92725 33.3561 6.85568 33.4133 5.78412C33.481 4.71775 33.5798 3.65659 33.7046 2.60063C33.7567 2.17408 33.8555 1.75794 33.9959 1.35221C34.1312 1.01929 34.3601 0.785212 34.6826 0.644764C34.9999 0.509517 35.3328 0.478307 35.6813 0.561536C36.0402 0.644764 36.3367 0.842431 36.576 1.14413C36.9349 1.67471 37.143 2.24691 37.2002 2.87112C37.3927 4.8426 37.3719 6.72044 37.1378 8.50985C36.9141 10.2993 36.5188 12.1407 35.9518 14.0237C35.6189 15.1369 35.2964 16.1044 34.9947 16.9367C34.8958 17.2176 34.8126 17.4569 34.745 17.665C34.6202 18.0291 34.5577 18.258 34.5577 18.3516C34.5577 18.4504 34.6046 18.4504 34.7034 18.3516C35.312 17.7014 35.9414 17.3893 36.5968 17.4153C37.2471 17.4465 37.8713 17.8262 38.4695 18.5597C38.5215 18.6429 38.5735 18.7209 38.6151 18.7886C38.766 18.9966 38.9064 19.1631 39.0313 19.2879C39.1665 19.4024 39.3122 19.47 39.4682 19.496C39.8844 19.5688 40.3213 19.47 40.7791 19.2047C41.2472 18.929 41.7154 18.6117 42.1731 18.2476C42.6413 17.8886 42.995 17.7638 43.2343 17.873ZM35.6397 2.57982C35.6085 2.31974 35.5773 2.17408 35.5357 2.14287C35.4941 2.11687 35.442 2.15328 35.39 2.24691C35.3484 2.34574 35.312 2.47579 35.286 2.64225C35.2548 2.7983 35.2288 2.94395 35.2028 3.07919C35.1871 3.21964 35.1715 3.30287 35.1611 3.32888C35.1039 4.16116 35.0415 5.22232 34.9739 6.51236C34.9011 7.8024 34.8386 9.08204 34.7866 10.3409C34.7294 11.3708 34.6826 12.2447 34.641 12.9626C34.6098 13.6856 34.5837 14.1174 34.5577 14.2526C34.9427 13.1706 35.234 11.8702 35.4316 10.3409C35.6397 8.80114 35.7541 7.32384 35.7854 5.90896C35.8114 4.48367 35.7645 3.37049 35.6397 2.57982Z" fill="#1867C3"/>
<path d="M50.2016 17.8106C50.2536 17.8262 50.29 17.847 50.3056 17.873C50.3316 17.8886 50.3576 17.9354 50.3888 18.0187C50.4148 18.0915 50.3888 18.1799 50.3056 18.2892C50.2328 18.388 50.1704 18.466 50.1183 18.518C49.6606 18.9498 49.1196 19.2047 48.4954 19.2879C48.1469 19.3451 47.7932 19.3607 47.4342 19.3295C47.0701 19.3035 46.7268 19.2203 46.3939 19.0798C46.1442 18.955 45.9049 18.9914 45.6864 19.1839C45.2391 19.5896 44.7761 19.9745 44.2924 20.3491C44.0531 20.5311 43.7982 20.682 43.5225 20.8068C43.2416 20.9317 42.9451 21.0045 42.6278 21.0149C41.6863 21.0045 41.3169 20.5467 41.525 19.6416C41.525 19.6156 41.5406 19.5896 41.5666 19.5584C41.8319 18.8249 42.1856 18.1643 42.6278 17.5817C43.0699 16.9887 43.6317 16.4945 44.3132 16.1044C44.7709 15.8443 45.2547 15.7403 45.7697 15.7923C45.9049 15.8235 46.0402 15.8755 46.165 15.9588C46.3158 16.0316 46.3783 16.146 46.3523 16.3125C46.3367 16.3541 46.3106 16.3957 46.269 16.4373C46.2378 16.4789 46.2066 16.5153 46.165 16.5414C46.1338 16.5726 46.1026 16.5934 46.061 16.6038C46.0298 16.6194 45.9985 16.6246 45.9569 16.6246C45.5824 16.6402 45.2599 16.7494 44.9998 16.9575C44.7345 17.1552 44.49 17.384 44.2716 17.6441C44.0219 17.925 43.793 18.2267 43.5849 18.5596C43.3768 18.8926 43.2 19.2879 43.0647 19.7456C43.5641 19.4544 43.949 19.1735 44.2299 18.8926C44.282 18.8249 44.3444 18.7677 44.4172 18.7261C44.4588 18.6741 44.5056 18.6221 44.5629 18.5805C44.8125 18.362 45.0674 18.1591 45.3327 17.977C45.65 17.8002 45.9621 17.7066 46.269 17.7066C46.5707 17.7066 46.862 17.8314 47.1429 18.0811C47.5435 18.4296 47.9232 18.57 48.2873 18.4972C48.6618 18.414 49.0052 18.284 49.3277 18.1019C49.6606 17.9094 49.9519 17.8106 50.2016 17.8106Z" fill="#1867C3"/>
<path d="M57.1264 18.0609C57.3345 17.8528 57.5114 17.78 57.6674 17.832C57.8339 17.8736 57.9379 17.9932 57.9795 18.1857C58.0211 18.3678 57.9639 18.5758 57.8131 18.8099C57.4906 19.2677 57.0484 19.7618 56.4814 20.2872C55.9248 20.8178 55.3214 21.2756 54.6712 21.6605C54.0158 22.0506 53.4072 22.2639 52.8402 22.3055C51.6594 22.3575 51.1028 21.8009 51.1756 20.6201C51.186 20.4537 51.2224 20.2404 51.2796 19.9751C51.3213 19.7254 51.3525 19.4862 51.3837 19.2469C51.4253 18.9972 51.4097 18.8307 51.3421 18.7475C51.2692 18.6643 51.1808 18.6227 51.0716 18.6227C50.9727 18.6227 50.8687 18.6383 50.7595 18.6643C50.6346 18.6955 50.5202 18.7007 50.4266 18.6851C49.844 18.6175 49.5475 18.321 49.5318 17.7904C49.5214 17.0569 49.6463 16.3547 49.9272 15.6889C50.0208 15.4808 50.1873 15.3455 50.4266 15.2727C50.6762 15.2051 50.9051 15.2311 51.1132 15.3559C51.2484 15.4392 51.3109 15.5588 51.3005 15.7097C51.2848 15.9073 51.2484 16.105 51.1964 16.3131C51.1652 16.3963 51.1444 16.4795 51.134 16.5628C51.0196 17.0933 51.0196 17.3638 51.134 17.3742C51.2432 17.3898 51.4877 17.2494 51.8622 16.9581C52.1379 16.7656 52.4448 16.6824 52.7778 16.7084C53.2199 16.75 53.402 16.9997 53.3187 17.4575C53.2355 17.7644 53.1575 18.0765 53.0899 18.3938C52.9234 19.0596 52.7882 19.7254 52.6945 20.3913C52.6633 20.849 52.7465 21.1195 52.9442 21.2027C53.1367 21.2756 53.402 21.2235 53.7349 21.0571C54.0678 20.8906 54.4111 20.6722 54.7752 20.3913C55.1342 20.1 55.4515 19.8191 55.7324 19.5382C56.0081 19.2625 56.1953 19.0596 56.2942 18.9348C56.3462 18.8827 56.4242 18.7995 56.523 18.6851C56.6323 18.5758 56.7415 18.4666 56.8559 18.3522C56.9808 18.2273 57.0692 18.1337 57.1264 18.0609Z" fill="#1867C3"/>
<path d="M69.7402 17.81C69.917 17.8516 70.0002 17.966 69.9898 18.1429C69.9898 18.3093 69.9274 18.4862 69.8026 18.6631C69.5113 19.1104 69.1264 19.5058 68.6582 19.8491C68.2004 20.182 67.7219 20.4213 67.2225 20.5565C66.7335 20.697 66.2758 20.6762 65.8492 20.4941C65.4175 20.3016 65.0846 19.9011 64.8505 19.2873C64.6424 18.7463 64.5176 18.1845 64.476 17.6019C64.4604 17.4094 64.4448 16.9153 64.4344 16.1246C64.4344 15.3339 64.4239 14.5121 64.4135 13.6486C64.4135 12.7747 64.4135 12.1244 64.4135 11.6927C64.4135 11.5002 64.4135 11.3962 64.4135 11.3806C64.091 12.5458 63.7113 13.7526 63.2692 15.001C62.8374 16.2494 62.5305 17.0921 62.3536 17.5187C61.9895 18.2989 61.589 19.0532 61.1468 19.7867C60.8243 20.2756 60.4498 20.7126 60.0232 21.0975C59.6747 21.4044 59.2586 21.5917 58.7748 21.6593C58.2859 21.7165 57.8385 21.6541 57.4224 21.472C57.0062 21.2796 56.7305 20.9518 56.5901 20.4941C56.4548 19.9687 56.4236 19.4537 56.5068 18.9544C56.5797 18.455 56.7877 17.9868 57.1311 17.5395C57.516 17.0557 57.9633 16.7384 58.4627 16.5824C58.9621 16.4315 59.5031 16.4263 60.0857 16.5616C60.2781 16.6188 60.4654 16.6812 60.6475 16.7488C60.7411 16.7904 60.8399 16.8268 60.9388 16.8529C61.2301 16.4939 61.5474 15.7657 61.8959 14.6681C62.2548 13.5601 62.5825 12.4313 62.8738 11.2765C63.1755 10.127 63.3836 9.29467 63.498 8.7797C63.8413 7.22957 64.1326 5.67944 64.3719 4.13972C64.5228 3.15658 64.6944 2.15784 64.8921 1.14349C64.9597 0.826187 65.1418 0.618116 65.4331 0.519282C65.7348 0.425649 66.0209 0.472466 66.2862 0.664931C66.411 0.763765 66.4734 0.888608 66.4734 1.03946C66.4318 2.84447 66.3486 4.65989 66.2238 6.49092C66.1925 7.23997 66.1613 7.96822 66.1197 8.67566C66.0365 10.0645 65.9793 11.4586 65.9533 12.8579C65.9221 14.2624 65.9377 15.6616 65.9949 17.0609C65.9949 17.1181 65.9949 17.1754 65.9949 17.2274C65.9949 17.5187 66.0209 17.862 66.0781 18.2469C66.1301 18.6371 66.2342 18.97 66.3902 19.2457C66.5411 19.511 66.7908 19.5994 67.1393 19.5162C67.389 19.4329 67.6438 19.2977 67.9091 19.1C68.1848 18.8919 68.4501 18.6839 68.6998 18.4758C68.9183 18.2833 69.1211 18.1221 69.3032 17.9972C69.4801 17.862 69.6257 17.7996 69.7402 17.81ZM59.0661 20.2236C59.3834 19.8803 59.6539 19.511 59.8776 19.1208C60.1117 18.7203 60.3406 18.2781 60.5642 17.7892C60.2729 17.6539 59.992 17.5499 59.7319 17.4771C59.4667 17.3938 59.2118 17.4094 58.9621 17.5187C58.7124 17.6175 58.4731 17.8464 58.2546 18.2053C57.8489 18.944 57.7865 19.7034 58.0674 20.4941C58.1506 20.6762 58.2546 20.7594 58.3795 20.7438C58.5043 20.7178 58.6292 20.6501 58.754 20.5357C58.8893 20.4109 58.9933 20.3068 59.0661 20.2236Z" fill="#1867C3"/>
<path d="M83.5715 27.2578C83.8628 27.2578 84.1437 27.2422 84.4246 27.2162C84.7159 27.185 84.9916 27.1173 85.2569 27.0081C86.032 26.6336 86.2972 26.0406 86.0476 25.2395C85.9227 24.8234 85.7146 24.4488 85.4233 24.1159C85.0904 23.6842 84.7211 23.2888 84.3206 22.9299C83.9304 22.5658 83.5195 22.2225 83.0929 21.8896C82.8537 21.7231 82.6352 21.7335 82.4271 21.9104C81.7873 22.3941 81.2047 22.9351 80.6793 23.5333C80.4556 23.7934 80.2684 24.0951 80.1175 24.428C79.769 25.2187 79.9355 25.8845 80.6169 26.4255C80.9342 26.6752 81.2879 26.852 81.6781 26.9665C82.2867 27.159 82.9161 27.2578 83.5715 27.2578ZM83.9668 20.8492C83.9929 20.948 84.0397 21.0313 84.1125 21.0989C84.1801 21.1717 84.2477 21.2341 84.3206 21.2861C84.3726 21.3278 84.4246 21.3642 84.4662 21.3902C84.6743 21.5722 84.872 21.7543 85.0696 21.9312C85.4442 22.2485 85.8031 22.5762 86.1516 22.9091C86.651 23.3669 87.0567 23.9078 87.3792 24.5321C87.6809 25.1563 87.7589 25.7597 87.6081 26.3423C87.452 26.9249 86.9943 27.3878 86.2348 27.7364C85.9123 27.8716 85.5742 27.9704 85.2153 28.0277C84.5182 28.1109 83.8212 28.1421 83.1138 28.1317C82.4167 28.1161 81.7301 28.012 81.0539 27.8196C80.7209 27.7364 80.3932 27.6167 80.0759 27.4659C79.769 27.3254 79.4985 27.1381 79.2644 26.9041C78.3749 26.0822 78.1877 25.1407 78.7027 24.0743C78.9107 23.6582 79.1708 23.268 79.4933 22.9091C80.0187 22.3681 80.5753 21.8635 81.1579 21.3902C81.4596 21.1561 81.6052 20.9896 81.5948 20.8908C81.5948 20.7816 81.4284 20.6307 81.0955 20.4331C80.4817 20.0169 79.8731 19.6164 79.2644 19.2262C78.9315 19.0182 78.6038 18.8049 78.2865 18.5812C78.0888 18.446 77.8964 18.3211 77.7039 18.2067C77.2045 17.8894 76.7104 17.5565 76.2266 17.208C75.6856 16.8334 75.1811 16.4173 74.7077 15.9595C74.2239 15.5018 73.8026 14.9816 73.4385 14.399C72.6894 13.2078 72.4137 11.9854 72.6062 10.737C72.8038 9.48853 73.35 8.29212 74.2499 7.13733C75.155 5.97213 76.2786 4.92657 77.6415 3.99545C78.9992 3.06954 80.4765 2.32048 82.0734 1.74829C83.6651 1.16569 85.2465 0.832776 86.8174 0.749548C88.3988 0.655916 89.8449 0.87439 91.1661 1.41537C92.4978 1.94596 93.5901 2.86147 94.4536 4.16191C94.6045 4.40119 94.7293 4.65088 94.8281 4.91097C94.9374 5.17626 94.9946 5.45195 94.9946 5.74325C94.9946 6.05016 94.8542 6.23742 94.5785 6.30504C94.3964 6.36226 94.2247 6.36226 94.0583 6.30504C93.9022 6.25302 93.793 6.15939 93.7254 6.03455C93.7098 5.99294 93.6942 5.95132 93.6838 5.90971C93.6682 5.8837 93.663 5.85769 93.663 5.82648C93.0908 4.26075 92.2533 3.14236 91.1453 2.47654C90.0321 1.80031 88.7733 1.4778 87.3584 1.51941C85.9539 1.56102 84.5182 1.87313 83.0513 2.45573C81.5792 3.02793 80.2008 3.75617 78.9107 4.64047C77.6207 5.51437 76.5439 6.4663 75.6856 7.49105C74.8117 8.50539 74.2707 9.48853 74.0627 10.4457C73.8442 11.6265 74.0419 12.724 74.6661 13.7332C75.1654 14.5967 75.7949 15.3301 76.5595 15.9387C77.1525 16.4121 77.7559 16.8542 78.3697 17.2704C78.9367 17.6345 79.4933 17.9882 80.0343 18.3315C80.7834 18.8205 81.522 19.3043 82.2607 19.788C82.4687 19.9441 82.6612 20.0117 82.8433 19.9961C83.0201 19.9857 83.2074 19.9077 83.4051 19.7672C84.3882 19.1846 85.3505 18.6436 86.2972 18.1443C87.2544 17.6449 87.7797 17.5097 87.8786 17.7281C87.9878 17.9518 87.8422 18.2171 87.4416 18.5188C86.4845 19.0338 85.569 19.6008 84.6951 20.225C84.6379 20.2562 84.5911 20.2822 84.5494 20.3082C84.3102 20.4331 84.1177 20.6151 83.9668 20.8492Z" fill="#1867C3"/>
<path d="M94.3734 17.8106C94.4255 17.8262 94.4619 17.847 94.4775 17.873C94.5035 17.8886 94.5295 17.9354 94.5607 18.0187C94.5867 18.0915 94.5607 18.1799 94.4775 18.2892C94.4047 18.388 94.3422 18.466 94.2902 18.518C93.8325 18.9498 93.2915 19.2047 92.6673 19.2879C92.3187 19.3451 91.965 19.3607 91.6061 19.3295C91.242 19.3035 90.8987 19.2203 90.5658 19.0798C90.3161 18.955 90.0768 18.9914 89.8583 19.1839C89.411 19.5896 88.948 19.9745 88.4642 20.3491C88.225 20.5311 87.9701 20.682 87.6944 20.8068C87.4135 20.9317 87.117 21.0045 86.7997 21.0149C85.8581 21.0045 85.4888 20.5467 85.6969 19.6416C85.6969 19.6156 85.7125 19.5896 85.7385 19.5584C86.0038 18.8249 86.3575 18.1643 86.7997 17.5817C87.2418 16.9887 87.8036 16.4945 88.485 16.1044C88.9428 15.8443 89.4266 15.7403 89.9415 15.7923C90.0768 15.8235 90.212 15.8755 90.3369 15.9588C90.4877 16.0316 90.5501 16.146 90.5241 16.3125C90.5085 16.3541 90.4825 16.3957 90.4409 16.4373C90.4097 16.4789 90.3785 16.5153 90.3369 16.5414C90.3057 16.5726 90.2745 16.5934 90.2328 16.6038C90.2016 16.6194 90.1704 16.6246 90.1288 16.6246C89.7543 16.6402 89.4318 16.7494 89.1717 16.9575C88.9064 17.1552 88.6619 17.384 88.4434 17.6441C88.1937 17.925 87.9649 18.2267 87.7568 18.5596C87.5487 18.8926 87.3719 19.2879 87.2366 19.7456C87.736 19.4544 88.1209 19.1735 88.4018 18.8926C88.4538 18.8249 88.5163 18.7677 88.5891 18.7261C88.6307 18.6741 88.6775 18.6221 88.7347 18.5805C88.9844 18.362 89.2393 18.1591 89.5046 17.977C89.8219 17.8002 90.134 17.7066 90.4409 17.7066C90.7426 17.7066 91.0339 17.8314 91.3148 18.0811C91.7153 18.4296 92.0951 18.57 92.4592 18.4972C92.8337 18.414 93.177 18.284 93.4996 18.1019C93.8325 17.9094 94.1238 17.8106 94.3734 17.8106Z" fill="#1867C3"/>
<path d="M104.929 18.0821C104.996 18.0977 105.059 18.1237 105.116 18.1653C105.183 18.1965 105.225 18.2486 105.241 18.3318C105.267 18.4878 105.225 18.6127 105.116 18.7063C104.601 19.0548 104.055 19.3305 103.472 19.5386C102.941 19.705 102.416 19.8195 101.891 19.8715C101.36 19.9131 100.819 19.9079 100.268 19.8507C99.5707 19.7831 99.0037 19.4502 98.5615 18.852C98.4367 18.6595 98.3015 18.4722 98.1662 18.2902C98.0258 18.1133 97.8801 17.9156 97.7293 17.7076C97.6044 17.5567 97.4484 17.5411 97.2715 17.666C97.0478 17.822 96.845 17.9989 96.6681 18.2069C96.486 18.415 96.3144 18.6335 96.1479 18.852C96.1479 18.8832 96.1323 18.904 96.1063 18.9144C96.0491 18.9976 95.9867 19.0808 95.919 19.1641C95.8462 19.3045 95.763 19.4294 95.6694 19.5386C95.5133 19.7207 95.3052 19.8403 95.0451 19.8923C94.7799 19.9495 94.5302 19.9287 94.2961 19.8299C94.1296 19.7467 94.0152 19.6218 93.9632 19.4554C93.8071 18.8207 93.7135 18.1809 93.6719 17.5411C93.6719 17.1822 93.8279 16.9741 94.1504 16.9169C94.525 16.8337 94.7851 16.9533 94.9411 17.2706C94.9671 17.3278 94.9879 17.3903 95.0035 17.4579C95.0139 17.5307 95.0347 17.5983 95.066 17.666C95.1076 17.7388 95.17 17.8012 95.2532 17.8532C95.3468 17.7596 95.4405 17.6764 95.5237 17.6035C95.7162 17.4371 95.9086 17.2706 96.1063 17.1042C96.3248 16.9117 96.5641 16.7817 96.8137 16.7088C97.0634 16.6256 97.3235 16.584 97.6044 16.584C98.2546 16.584 98.7748 16.8441 99.1649 17.3538C99.2326 17.4787 99.3106 17.5931 99.3938 17.6868C99.5603 17.9364 99.7319 18.1861 99.914 18.4358C100.216 18.8103 100.621 19.008 101.121 19.0184C101.62 19.0496 102.099 19.008 102.557 18.8936C103.025 18.7687 103.477 18.5919 103.909 18.3526C103.935 18.3422 103.956 18.3266 103.971 18.311C104.122 18.2277 104.273 18.1601 104.429 18.1029C104.58 18.0509 104.746 18.0405 104.929 18.0821Z" fill="#1867C3"/>
<path d="M110.461 18.1855C110.487 18.1751 110.508 18.1595 110.523 18.1439C110.648 18.0607 110.794 17.9774 110.96 17.8942C111.137 17.811 111.293 17.7798 111.418 17.7902C111.553 17.7902 111.636 17.8838 111.668 18.0607C111.652 18.3104 111.376 18.5808 110.835 18.8721C110.294 19.1634 109.618 19.4443 108.817 19.7044C108.026 19.9697 107.262 20.1778 106.528 20.3286C105.79 20.4847 105.238 20.5523 104.864 20.5367C104.448 20.4951 104.146 20.3443 103.948 20.079C103.74 19.8189 103.667 19.4704 103.719 19.0386C103.792 18.5704 104 18.0919 104.344 17.6029C104.702 17.1192 105.165 16.7394 105.738 16.4585C106.32 16.1828 106.965 16.1048 107.673 16.2296C107.782 16.2453 107.87 16.2869 107.943 16.3545C107.985 16.3857 108.016 16.4273 108.047 16.4793C108.073 16.5209 108.089 16.573 108.089 16.625C108.073 16.781 107.974 16.8747 107.797 16.9163C107.631 16.9579 107.465 16.9787 107.298 16.9787C107.256 16.9787 107.22 16.9891 107.194 16.9995C106.747 17.0567 106.31 17.3116 105.883 17.7694C105.451 18.2167 105.207 18.7005 105.155 19.2259C105.155 19.4652 105.373 19.5744 105.821 19.5588C106.263 19.5484 106.799 19.4547 107.423 19.2883C108.047 19.1218 108.635 18.945 109.192 18.7473C109.759 18.5392 110.18 18.352 110.461 18.1855Z" fill="#1867C3"/>
<path d="M121.164 17.873C121.247 17.8886 121.299 17.9459 121.33 18.0395C121.356 18.1383 121.33 18.2476 121.247 18.3724C120.998 18.7053 120.628 19.0538 120.144 19.4128C119.655 19.7613 119.125 20.0526 118.542 20.2867C117.97 20.5103 117.419 20.5988 116.878 20.5572C116.347 20.5155 115.921 20.2659 115.588 19.8081C115.504 19.6989 115.426 19.5896 115.359 19.4752C115.218 19.2151 115.036 18.9706 114.818 18.7469C114.553 18.4973 114.303 18.4973 114.069 18.7469C113.637 19.2203 113.288 19.7405 113.028 20.3075C112.914 20.5988 112.8 20.8849 112.675 21.1606C112.591 21.3842 112.498 21.5923 112.404 21.7848C112.181 22.3362 111.79 22.5338 111.239 22.3674C110.958 22.2529 110.812 22.0657 110.781 21.8056C110.771 21.7119 110.771 21.6079 110.781 21.4935C110.781 21.4519 110.781 21.4102 110.781 21.3686C110.812 20.3023 110.844 19.2411 110.885 18.1851C110.953 15.6623 111.041 13.1446 111.156 10.6322C111.166 10.0912 111.182 9.5502 111.197 9.00922C111.239 7.92725 111.286 6.85568 111.343 5.78412C111.411 4.71775 111.509 3.65659 111.634 2.60063C111.686 2.17408 111.785 1.75794 111.926 1.35221C112.061 1.01929 112.29 0.785212 112.612 0.644764C112.93 0.509517 113.262 0.478307 113.611 0.561536C113.97 0.644764 114.266 0.842431 114.506 1.14413C114.865 1.67471 115.073 2.24691 115.13 2.87112C115.322 4.8426 115.302 6.72044 115.068 8.50985C114.844 10.2993 114.448 12.1407 113.881 14.0237C113.549 15.1369 113.226 16.1044 112.924 16.9367C112.826 17.2176 112.742 17.4569 112.675 17.665C112.55 18.0291 112.487 18.258 112.487 18.3516C112.487 18.4504 112.534 18.4504 112.633 18.3516C113.242 17.7014 113.871 17.3893 114.527 17.4153C115.177 17.4465 115.801 17.8262 116.399 18.5597C116.451 18.6429 116.503 18.7209 116.545 18.7886C116.696 18.9966 116.836 19.1631 116.961 19.2879C117.096 19.4024 117.242 19.47 117.398 19.496C117.814 19.5688 118.251 19.47 118.709 19.2047C119.177 18.929 119.645 18.6117 120.103 18.2476C120.571 17.8886 120.925 17.7638 121.164 17.873ZM113.569 2.57982C113.538 2.31974 113.507 2.17408 113.465 2.14287C113.424 2.11687 113.372 2.15328 113.32 2.24691C113.278 2.34574 113.242 2.47579 113.216 2.64225C113.184 2.7983 113.158 2.94395 113.132 3.07919C113.117 3.21964 113.101 3.30287 113.091 3.32888C113.034 4.16116 112.971 5.22232 112.904 6.51236C112.831 7.8024 112.768 9.08204 112.716 10.3409C112.659 11.3708 112.612 12.2447 112.571 12.9626C112.539 13.6856 112.513 14.1174 112.487 14.2526C112.872 13.1706 113.164 11.8702 113.361 10.3409C113.569 8.80114 113.684 7.32384 113.715 5.90896C113.741 4.48367 113.694 3.37049 113.569 2.57982Z" fill="#1867C3"/>
<path d="M122.182 18.7471C122.182 18.7471 122.171 18.7471 122.161 18.7471C122.161 18.7471 122.166 18.7471 122.182 18.7471ZM128.091 17.894C128.158 17.868 128.257 17.8264 128.382 17.7691C128.517 17.7171 128.653 17.6859 128.777 17.6859C128.902 17.6755 128.991 17.7171 129.048 17.8107C129.09 17.8836 129.095 17.9512 129.069 18.0188C129.053 18.0916 129.017 18.1541 128.965 18.2061C128.658 18.539 128.179 18.8823 127.529 19.2256C126.874 19.5741 126.203 19.8811 125.511 20.1411C124.814 20.4064 124.231 20.5781 123.763 20.6613C123.232 20.7602 122.702 20.781 122.161 20.7237C121.495 20.6405 120.996 20.3648 120.663 19.8915C120.33 19.4233 120.2 18.8927 120.267 18.3101C120.366 17.6599 120.663 17.1397 121.162 16.7496C121.661 16.3647 122.234 16.219 122.889 16.3126C123.274 16.3699 123.628 16.5155 123.95 16.7496C124.293 17.0305 124.45 17.353 124.408 17.7275C124.377 18.0916 124.163 18.3673 123.763 18.5598C123.555 18.6742 123.326 18.7419 123.076 18.7679C122.827 18.7835 122.525 18.7783 122.182 18.7471C122.182 18.7471 122.171 18.7471 122.161 18.7471C122.145 18.7471 122.119 18.7471 122.078 18.7471C122.046 18.7471 122.015 18.7471 121.974 18.7471C121.875 18.7471 121.807 18.7783 121.765 18.8303C121.734 18.8875 121.734 18.9655 121.765 19.0592C121.958 19.5169 122.327 19.7614 122.868 19.7874C123.409 19.803 124.018 19.699 124.699 19.4753C125.391 19.2412 126.052 18.9707 126.676 18.6638C127.3 18.3621 127.768 18.102 128.091 17.894ZM122.182 17.353C122.098 17.4258 122.036 17.4986 121.994 17.5819C121.963 17.6651 121.942 17.7379 121.932 17.7899C121.932 17.8472 121.942 17.8836 121.974 17.894C122 17.894 122.067 17.9096 122.182 17.9356C122.306 17.9512 122.436 17.9512 122.577 17.9356C122.712 17.9252 122.832 17.894 122.931 17.8524C123.024 17.8003 123.061 17.7067 123.035 17.5819C122.962 17.4154 122.837 17.3114 122.66 17.2698C122.494 17.2177 122.332 17.2438 122.182 17.353Z" fill="#1867C3"/>
<path d="M137.103 18.0195C137.114 18.0611 137.124 18.1027 137.124 18.1443C137.108 18.2588 137.062 18.342 136.978 18.394C136.88 18.4928 136.781 18.5761 136.687 18.6437C136.588 18.7165 136.489 18.7893 136.396 18.8726C136.006 19.2055 135.616 19.5384 135.231 19.8713C134.617 20.4019 134.003 20.9325 133.379 21.4735C133.212 21.6139 133.108 21.7544 133.067 21.8896C133.025 22.03 133.051 22.1913 133.15 22.389C133.358 22.7895 133.483 23.2056 133.524 23.6374C133.566 24.0639 133.566 24.4957 133.524 24.9274C133.4 26.0198 132.973 26.9509 132.255 27.7156C131.532 28.475 130.617 28.9432 129.509 29.1097C129.077 29.1617 128.661 29.1149 128.26 28.964C127.553 28.7143 127.251 28.215 127.345 27.4659C127.428 26.9353 127.615 26.4359 127.907 25.9678C128.281 25.2708 128.723 24.6205 129.238 24.0119C129.306 23.9391 129.373 23.8559 129.446 23.7622C129.904 23.2473 130.351 22.7271 130.799 22.2017C130.976 21.952 130.913 21.7804 130.611 21.6815C130.221 21.5723 129.831 21.5775 129.446 21.7023C129.165 21.8168 128.884 21.848 128.593 21.8064C128.479 21.796 128.375 21.7596 128.281 21.7023C128.198 21.6503 128.146 21.5567 128.115 21.4318C128.104 21.3382 128.125 21.255 128.177 21.1822C128.229 21.1145 128.291 21.0521 128.364 20.9949C128.874 20.6516 129.342 20.2562 129.758 19.8089C130.175 19.3667 130.57 18.909 130.944 18.4356C131.028 18.3264 131.137 18.1547 131.277 17.9154C131.413 17.6658 131.532 17.3953 131.631 17.104C131.74 16.8127 131.777 16.563 131.735 16.3549C131.693 16.1468 131.527 16.0376 131.236 16.022C130.82 16.0532 130.445 16.2041 130.112 16.4798C129.779 16.745 129.555 17.0832 129.446 17.4993C129.306 18.0819 128.978 18.2692 128.468 18.0611C128.125 17.9363 127.979 17.6866 128.031 17.312C128.089 16.9531 128.239 16.6358 128.489 16.3549C128.999 15.8295 129.561 15.481 130.175 15.3146C130.783 15.1377 131.433 15.1221 132.13 15.2729C132.531 15.3458 132.817 15.5122 132.983 15.7723C133.15 16.022 133.218 16.3549 133.192 16.7711C133.16 17.286 133.009 17.7594 132.734 18.1859C132.37 18.7581 131.954 19.2887 131.485 19.7881C131.069 20.277 130.913 20.5996 131.028 20.766C131.137 20.9325 131.371 20.9845 131.735 20.9117C132.094 20.8284 132.442 20.6568 132.775 20.3915C132.827 20.3395 132.885 20.2875 132.942 20.2458C133.857 19.4864 134.794 18.7633 135.751 18.0819C135.917 17.9883 136.073 17.905 136.229 17.8322C136.396 17.7646 136.567 17.749 136.75 17.7906C136.916 17.8218 137.03 17.8946 137.103 18.0195ZM129.03 28.0485C129.264 28.215 129.571 28.1941 129.946 27.9861C130.331 27.778 130.695 27.4295 131.028 26.9457C131.371 26.4568 131.631 25.8898 131.797 25.2395C131.964 24.5997 131.943 23.9131 131.735 23.1796C131.621 23.2889 131.381 23.5594 131.007 23.9911C130.643 24.4333 130.263 24.9326 129.862 25.4892C129.457 26.0406 129.155 26.5556 128.947 27.029C128.749 27.5127 128.78 27.8508 129.03 28.0485Z" fill="#1867C3"/>
</svg>
