<svg width="71" height="71" viewBox="0 0 71 71" fill="none" xmlns="http://www.w3.org/2000/svg">
<rect x="1" y="1" width="69" height="69" fill="#1D4EAB" stroke="#F2CC1F" stroke-width="2"/>
<path d="M29.5205 14.8417C28.534 14.8417 27.7344 14.0421 27.7344 13.0556C27.7344 12.0692 28.534 11.2695 29.5205 11.2695H41.4795C42.466 11.2695 43.2656 12.0692 43.2656 13.0556C43.2656 14.0421 42.466 14.8417 41.4795 14.8417H40.3147C38.6849 14.8417 37.3638 16.1629 37.3638 17.7927V30.5283C37.3638 31.5576 36.5293 32.392 35.5 32.392C34.4707 32.392 33.6363 31.5576 33.6363 30.5283V17.7927C33.6363 16.1629 32.3151 14.8417 30.6853 14.8417H29.5205Z" fill="#F2CC1F"/>
<path d="M22.7341 52.7604C22.8488 53.1442 22.6638 53.5591 22.2763 53.6606C22.1879 53.6837 22.0965 53.705 22.0022 53.7244C21.6501 53.8073 21.2929 53.8487 20.9305 53.8487C20.33 53.8487 19.8485 53.7244 19.4861 53.4759C19.1237 53.2274 18.8597 52.8806 18.694 52.4353C18.5387 51.9901 18.4611 51.4827 18.4611 50.9133V48.0089C18.4611 47.6572 18.176 47.3721 17.8243 47.3721C17.4726 47.3721 17.1875 47.087 17.1875 46.7354V46.4558C17.1875 46.1041 17.4726 45.819 17.8243 45.819C18.176 45.819 18.4611 45.5339 18.4611 45.1822V44.6619C18.4611 44.1687 18.8609 43.7689 19.3541 43.7689C19.8473 43.7689 20.2472 44.1687 20.2472 44.6619V44.794C20.2472 45.3601 20.7061 45.819 21.2722 45.819H21.9245C22.3534 45.819 22.7011 46.1667 22.7011 46.5956C22.7011 47.0245 22.3534 47.3721 21.9245 47.3721H21.4741C20.7965 47.3721 20.2472 47.9215 20.2472 48.5991V50.9133C20.2472 51.3896 20.3352 51.7209 20.5112 51.9073C20.6976 52.0833 20.9616 52.1713 21.3033 52.1713C21.4689 52.1713 21.645 52.1558 21.8313 52.1247C22.1915 52.0489 22.574 52.2251 22.6795 52.5778L22.7341 52.7604Z" fill="white"/>
<path d="M29.3863 53.6934C29.2064 53.6934 29.0605 53.5475 29.0605 53.3676C29.0605 53.0883 28.7284 52.935 28.5022 53.0988C28.2319 53.2946 27.9728 53.4513 27.7248 53.5691C27.3107 53.7555 26.8913 53.8487 26.4668 53.8487C25.7627 53.8487 25.2191 53.6105 24.836 53.1342C24.4529 52.6476 24.2614 51.9694 24.2614 51.0996V46.7121C24.2614 46.2188 24.6612 45.819 25.1544 45.819C25.6476 45.819 26.0475 46.2188 26.0475 46.7121V50.8822C26.0475 51.752 26.3685 52.1868 27.0104 52.1868C27.2693 52.1868 27.5488 52.1247 27.8491 52.0005C28.6311 51.6877 28.9673 50.7967 28.9673 49.9544V46.7121C28.9673 46.2188 29.3672 45.819 29.8604 45.819C30.3536 45.819 30.7534 46.2188 30.7534 46.7121V52.8469C30.7534 53.3144 30.3745 53.6934 29.907 53.6934H29.3863Z" fill="white"/>
<path d="M37.7633 46.5956C37.7633 47.0245 37.4156 47.3721 36.9867 47.3721H36.5363C35.8586 47.3721 35.3093 47.9215 35.3093 48.5991V52.8003C35.3093 53.2935 34.9095 53.6934 34.4163 53.6934C33.923 53.6934 33.5232 53.2935 33.5232 52.8003V48.0089C33.5232 47.6572 33.2381 47.3721 32.8864 47.3721C32.5348 47.3721 32.2497 47.087 32.2497 46.7354V46.4558C32.2497 46.1041 32.5348 45.819 32.8864 45.819C33.2381 45.819 33.5232 45.5339 33.5232 45.1822V44.9959C33.5232 44.1365 33.7407 43.4324 34.1755 42.8836C34.6104 42.3245 35.3093 42.0449 36.2723 42.0449C36.6243 42.0449 36.9867 42.0812 37.3594 42.1536C37.4608 42.1734 37.5596 42.1946 37.6556 42.2174C38.0662 42.3148 38.2808 42.7448 38.166 43.1509C38.0397 43.5975 37.567 43.8355 37.1085 43.7641C36.9297 43.7362 36.7597 43.7223 36.5984 43.7223C36.1842 43.7223 35.8633 43.8155 35.6355 44.0019C35.418 44.1779 35.3093 44.5092 35.3093 44.9959C35.3093 45.4505 35.6779 45.819 36.1325 45.819H36.9867C37.4156 45.819 37.7633 46.1667 37.7633 46.5956Z" fill="white"/>
<path d="M44.8054 52.5338C44.9408 52.9317 44.7431 53.3706 44.3424 53.4976C44.0603 53.587 43.7877 53.6574 43.5246 53.7089C43.0483 53.8021 42.5979 53.8487 42.1734 53.8487C41.0034 53.8487 40.1181 53.5173 39.5176 52.8547C38.917 52.192 38.6167 51.3119 38.6167 50.2144V49.2825C38.6167 48.5473 38.7513 47.9106 39.0206 47.3721C39.2898 46.8337 39.6729 46.4144 40.1699 46.1141C40.6669 45.8138 41.2519 45.6637 41.9249 45.6637C42.4737 45.6637 42.9862 45.7776 43.4625 46.0054C43.9491 46.2228 44.3426 46.5697 44.6429 47.046C44.9535 47.5119 45.1088 48.1125 45.1088 48.8476C45.1088 49.065 45.0933 49.298 45.0622 49.5465C45.0029 50.0013 44.5882 50.3075 44.1296 50.3075H41.8965C41.0455 50.3075 40.2408 51.1305 40.8222 51.752C41.1224 52.0729 41.6039 52.2334 42.2666 52.2334C42.6186 52.2334 42.981 52.192 43.3538 52.1092C43.481 52.0817 43.6094 52.0496 43.739 52.0129C44.1783 51.8886 44.6584 52.1016 44.8054 52.5338ZM41.9249 47.1702C41.4486 47.1702 41.0759 47.3255 40.8066 47.6362C40.3116 48.2104 41.0017 48.9408 41.76 48.9408H43.1974C43.2793 48.9408 43.3538 48.8829 43.3538 48.801C43.3538 48.7492 43.3538 48.7027 43.3538 48.6612C43.3538 48.1642 43.214 47.7915 42.9344 47.543C42.6549 47.2945 42.3184 47.1702 41.9249 47.1702Z" fill="white"/>
<path d="M52.9047 52.5338C53.0401 52.9317 52.8424 53.3706 52.4417 53.4976C52.1596 53.587 51.887 53.6574 51.6239 53.7089C51.1476 53.8021 50.6972 53.8487 50.2727 53.8487C49.1027 53.8487 48.2174 53.5173 47.6169 52.8547C47.0163 52.192 46.716 51.3119 46.716 50.2144V49.2825C46.716 48.5473 46.8506 47.9106 47.1199 47.3721C47.3891 46.8337 47.7722 46.4144 48.2692 46.1141C48.7662 45.8138 49.3512 45.6637 50.0242 45.6637C50.573 45.6637 51.0855 45.7776 51.5618 46.0054C52.0484 46.2228 52.4419 46.5697 52.7422 47.046C53.0528 47.5119 53.2081 48.1125 53.2081 48.8476C53.2081 49.065 53.1926 49.298 53.1615 49.5465C53.1022 50.0013 52.6875 50.3075 52.2289 50.3075H49.9958C49.1448 50.3075 48.3401 51.1305 48.9215 51.752C49.2218 52.0729 49.7032 52.2334 50.3659 52.2334C50.7179 52.2334 51.0803 52.192 51.4531 52.1092C51.5803 52.0817 51.7087 52.0496 51.8383 52.0129C52.2776 51.8886 52.7577 52.1016 52.9047 52.5338ZM50.0242 47.1702C49.5479 47.1702 49.1752 47.3255 48.906 47.6362C48.4109 48.2104 49.1011 48.9408 49.8593 48.9408H51.2967C51.3786 48.9408 51.4531 48.8829 51.4531 48.801C51.4531 48.7492 51.4531 48.7027 51.4531 48.6612C51.4531 48.1642 51.3133 47.7915 51.0337 47.543C50.7542 47.2945 50.4177 47.1702 50.0242 47.1702Z" fill="white"/>
<line x1="1.32812" y1="50.6055" x2="12.4219" y2="50.6055" stroke="#F2CC1F" stroke-width="2.625"/>
<line x1="58.5781" y1="50.6055" x2="69.6719" y2="50.6055" stroke="#F2CC1F" stroke-width="2.625"/>
</svg>
